<?xml version="1.0" encoding="UTF-8" standalone="no"?>
<!DOCTYPE svg PUBLIC "-//W3C//DTD SVG 1.1//EN"
 "http://www.w3.org/Graphics/SVG/1.1/DTD/svg11.dtd">
<!-- Generated by graphviz version 12.2.1 (20241206.2353)
 -->
<!-- Pages: 1 -->
<svg width="1208pt" height="66pt"
 viewBox="0.00 0.00 1207.61 65.98" xmlns="http://www.w3.org/2000/svg" xmlns:xlink="http://www.w3.org/1999/xlink">
<g id="graph0" class="graph" transform="scale(1 1) rotate(0) translate(4 61.98)">
<polygon fill="white" stroke="none" points="-4,4 -4,-61.98 1203.61,-61.98 1203.61,4 -4,4"/>
<!-- Input -->
<g id="node1" class="node">
<title>Input</title>
<polygon fill="none" stroke="black" points="79.75,-49.49 0,-49.49 0,-8.49 79.75,-8.49 79.75,-49.49"/>
<text text-anchor="middle" x="39.88" y="-32.19" font-family="Times New Roman,serif" font-size="14.00">Input Layer</text>
<text text-anchor="middle" x="39.88" y="-15.69" font-family="Times New Roman,serif" font-size="14.00">28x28x1</text>
</g>
<!-- Conv1 -->
<g id="node2" class="node">
<title>Conv1</title>
<polygon fill="none" stroke="black" points="182,-49.49 115.75,-49.49 115.75,-8.49 182,-8.49 182,-49.49"/>
<text text-anchor="middle" x="148.88" y="-32.19" font-family="Times New Roman,serif" font-size="14.00">Conv2D</text>
<text text-anchor="middle" x="148.88" y="-15.69" font-family="Times New Roman,serif" font-size="14.00">(3x3, 32)</text>
</g>
<!-- Input&#45;&gt;Conv1 -->
<g id="edge1" class="edge">
<title>Input&#45;&gt;Conv1</title>
<path fill="none" stroke="black" d="M80.11,-28.99C87.88,-28.99 96.09,-28.99 104.01,-28.99"/>
<polygon fill="black" stroke="black" points="103.8,-32.49 113.8,-28.99 103.8,-25.49 103.8,-32.49"/>
</g>
<!-- Pool1 -->
<g id="node3" class="node">
<title>Pool1</title>
<polygon fill="none" stroke="black" points="318,-49.49 218,-49.49 218,-8.49 318,-8.49 318,-49.49"/>
<text text-anchor="middle" x="268" y="-32.19" font-family="Times New Roman,serif" font-size="14.00">MaxPooling2D</text>
<text text-anchor="middle" x="268" y="-15.69" font-family="Times New Roman,serif" font-size="14.00">(2x2)</text>
</g>
<!-- Conv1&#45;&gt;Pool1 -->
<g id="edge2" class="edge">
<title>Conv1&#45;&gt;Pool1</title>
<path fill="none" stroke="black" d="M182.19,-28.99C189.73,-28.99 198,-28.99 206.34,-28.99"/>
<polygon fill="black" stroke="black" points="206.15,-32.49 216.15,-28.99 206.15,-25.49 206.15,-32.49"/>
</g>
<!-- Conv2 -->
<g id="node4" class="node">
<title>Conv2</title>
<polygon fill="none" stroke="black" points="420.25,-49.49 354,-49.49 354,-8.49 420.25,-8.49 420.25,-49.49"/>
<text text-anchor="middle" x="387.12" y="-32.19" font-family="Times New Roman,serif" font-size="14.00">Conv2D</text>
<text text-anchor="middle" x="387.12" y="-15.69" font-family="Times New Roman,serif" font-size="14.00">(3x3, 64)</text>
</g>
<!-- Pool1&#45;&gt;Conv2 -->
<g id="edge3" class="edge">
<title>Pool1&#45;&gt;Conv2</title>
<path fill="none" stroke="black" d="M318.33,-28.99C326.22,-28.99 334.34,-28.99 342.09,-28.99"/>
<polygon fill="black" stroke="black" points="341.99,-32.49 351.99,-28.99 341.99,-25.49 341.99,-32.49"/>
</g>
<!-- Pool2 -->
<g id="node5" class="node">
<title>Pool2</title>
<polygon fill="none" stroke="black" points="556.25,-49.49 456.25,-49.49 456.25,-8.49 556.25,-8.49 556.25,-49.49"/>
<text text-anchor="middle" x="506.25" y="-32.19" font-family="Times New Roman,serif" font-size="14.00">MaxPooling2D</text>
<text text-anchor="middle" x="506.25" y="-15.69" font-family="Times New Roman,serif" font-size="14.00">(2x2)</text>
</g>
<!-- Conv2&#45;&gt;Pool2 -->
<g id="edge4" class="edge">
<title>Conv2&#45;&gt;Pool2</title>
<path fill="none" stroke="black" d="M420.44,-28.99C427.98,-28.99 436.25,-28.99 444.59,-28.99"/>
<polygon fill="black" stroke="black" points="444.4,-32.49 454.4,-28.99 444.4,-25.49 444.4,-32.49"/>
</g>
<!-- Bottleneck -->
<g id="node6" class="node">
<title>Bottleneck</title>
<ellipse fill="none" stroke="black" cx="644.93" cy="-28.99" rx="52.68" ry="28.99"/>
<text text-anchor="middle" x="644.93" y="-32.19" font-family="Times New Roman,serif" font-size="14.00">Bottleneck</text>
<text text-anchor="middle" x="644.93" y="-15.69" font-family="Times New Roman,serif" font-size="14.00">(7x7x64)</text>
</g>
<!-- Pool2&#45;&gt;Bottleneck -->
<g id="edge5" class="edge">
<title>Pool2&#45;&gt;Bottleneck</title>
<path fill="none" stroke="black" d="M556.59,-28.99C564.39,-28.99 572.54,-28.99 580.6,-28.99"/>
<polygon fill="black" stroke="black" points="580.38,-32.49 590.38,-28.99 580.38,-25.49 580.38,-32.49"/>
</g>
<!-- Up1 -->
<g id="node7" class="node">
<title>Up1</title>
<polygon fill="none" stroke="black" points="835.11,-49.49 733.61,-49.49 733.61,-8.49 835.11,-8.49 835.11,-49.49"/>
<text text-anchor="middle" x="784.36" y="-32.19" font-family="Times New Roman,serif" font-size="14.00">UpSampling2D</text>
<text text-anchor="middle" x="784.36" y="-15.69" font-family="Times New Roman,serif" font-size="14.00">(2x2)</text>
</g>
<!-- Bottleneck&#45;&gt;Up1 -->
<g id="edge6" class="edge">
<title>Bottleneck&#45;&gt;Up1</title>
<path fill="none" stroke="black" d="M697.89,-28.99C705.65,-28.99 713.71,-28.99 721.66,-28.99"/>
<polygon fill="black" stroke="black" points="721.63,-32.49 731.63,-28.99 721.63,-25.49 721.63,-32.49"/>
</g>
<!-- Conv3 -->
<g id="node8" class="node">
<title>Conv3</title>
<polygon fill="none" stroke="black" points="937.36,-49.49 871.11,-49.49 871.11,-8.49 937.36,-8.49 937.36,-49.49"/>
<text text-anchor="middle" x="904.23" y="-32.19" font-family="Times New Roman,serif" font-size="14.00">Conv2D</text>
<text text-anchor="middle" x="904.23" y="-15.69" font-family="Times New Roman,serif" font-size="14.00">(3x3, 32)</text>
</g>
<!-- Up1&#45;&gt;Conv3 -->
<g id="edge7" class="edge">
<title>Up1&#45;&gt;Conv3</title>
<path fill="none" stroke="black" d="M835.35,-28.99C843.44,-28.99 851.77,-28.99 859.69,-28.99"/>
<polygon fill="black" stroke="black" points="859.43,-32.49 869.43,-28.99 859.43,-25.49 859.43,-32.49"/>
</g>
<!-- Up2 -->
<g id="node9" class="node">
<title>Up2</title>
<polygon fill="none" stroke="black" points="1074.86,-49.49 973.36,-49.49 973.36,-8.49 1074.86,-8.49 1074.86,-49.49"/>
<text text-anchor="middle" x="1024.11" y="-32.19" font-family="Times New Roman,serif" font-size="14.00">UpSampling2D</text>
<text text-anchor="middle" x="1024.11" y="-15.69" font-family="Times New Roman,serif" font-size="14.00">(2x2)</text>
</g>
<!-- Conv3&#45;&gt;Up2 -->
<g id="edge8" class="edge">
<title>Conv3&#45;&gt;Up2</title>
<path fill="none" stroke="black" d="M937.76,-28.99C945.25,-28.99 953.47,-28.99 961.75,-28.99"/>
<polygon fill="black" stroke="black" points="961.5,-32.49 971.5,-28.99 961.5,-25.49 961.5,-32.49"/>
</g>
<!-- Output -->
<g id="node10" class="node">
<title>Output</title>
<polygon fill="none" stroke="black" points="1199.61,-49.49 1110.86,-49.49 1110.86,-8.49 1199.61,-8.49 1199.61,-49.49"/>
<text text-anchor="middle" x="1155.23" y="-32.19" font-family="Times New Roman,serif" font-size="14.00">Output Layer</text>
<text text-anchor="middle" x="1155.23" y="-15.69" font-family="Times New Roman,serif" font-size="14.00">28x28x1</text>
</g>
<!-- Up2&#45;&gt;Output -->
<g id="edge9" class="edge">
<title>Up2&#45;&gt;Output</title>
<path fill="none" stroke="black" d="M1075.03,-28.99C1083.04,-28.99 1091.36,-28.99 1099.48,-28.99"/>
<polygon fill="black" stroke="black" points="1099.24,-32.49 1109.24,-28.99 1099.24,-25.49 1099.24,-32.49"/>
</g>
</g>
</svg>
